<svg width="44" height="44" viewBox="0 0 44 44" fill="none" xmlns="http://www.w3.org/2000/svg">
<path d="M35.9396 14.1818L23.0559 26.862C22.7748 27.1401 22.3953 27.2961 21.9999 27.2961C21.6045 27.2961 21.225 27.1401 20.9439 26.862L8.0574 14.1845C7.77454 13.9065 7.39384 13.7508 6.99727 13.7508C6.6007 13.7508 6.22 13.9065 5.93715 14.1845C5.79786 14.3203 5.68717 14.4826 5.61159 14.6618C5.53601 14.8411 5.49707 15.0336 5.49707 15.2281C5.49707 15.4227 5.53601 15.6152 5.61159 15.7944C5.68717 15.9737 5.79786 16.136 5.93715 16.2718L18.8181 28.9493C19.6666 29.7823 20.8081 30.249 21.9971 30.249C23.1862 30.249 24.3277 29.7823 25.1761 28.9493L38.0571 16.2718C38.1968 16.1359 38.3079 15.9735 38.3837 15.794C38.4596 15.6145 38.4986 15.4216 38.4986 15.2268C38.4986 15.0319 38.4596 14.839 38.3837 14.6595C38.3079 14.48 38.1968 14.3176 38.0571 14.1818C37.7743 13.9038 37.3936 13.748 36.997 13.748C36.6005 13.748 36.2197 13.9038 35.9369 14.1818" fill="white"/>
</svg>
