<svg width="24" height="24" viewBox="0 0 24 24" fill="none" xmlns="http://www.w3.org/2000/svg">
<path d="M15 4.24997V19.746C15 20.825 13.726 21.397 12.92 20.68L8.428 16.686C8.29072 16.5642 8.11353 16.4969 7.93 16.497H4.25C3.95453 16.497 3.66194 16.4388 3.38896 16.3257C3.11598 16.2126 2.86794 16.0469 2.65901 15.838C2.45008 15.629 2.28434 15.381 2.17127 15.108C2.0582 14.835 2 14.5424 2 14.247V9.74896C2.00027 9.1524 2.23744 8.58036 2.65936 8.15862C3.08129 7.73688 3.65344 7.49997 4.25 7.49997H7.93C8.11366 7.49974 8.29086 7.43214 8.428 7.30997L12.919 3.31697C13.726 2.59997 15 3.17197 15 4.24997ZM18.992 5.89796C19.1518 5.77957 19.3521 5.72949 19.5488 5.75875C19.7455 5.788 19.9226 5.89419 20.041 6.05397C21.3163 7.77416 22.0033 9.85958 22 12.001C22.0028 14.1421 21.3155 16.2272 20.04 17.947C19.9203 18.1034 19.744 18.2064 19.549 18.2339C19.354 18.2614 19.156 18.2111 18.9978 18.0938C18.8396 17.9766 18.7338 17.8018 18.7034 17.6072C18.6729 17.4127 18.7202 17.214 18.835 17.054C19.919 15.5925 20.5028 13.8205 20.5 12.001C20.5031 10.1811 19.9192 8.40869 18.835 6.94697C18.7763 6.86775 18.7337 6.77773 18.7099 6.68205C18.686 6.58638 18.6812 6.48693 18.6957 6.38941C18.7103 6.29188 18.744 6.19818 18.7948 6.11368C18.8457 6.02919 18.9127 5.95654 18.992 5.89796ZM17.143 8.36997C17.2296 8.323 17.3246 8.29355 17.4226 8.28331C17.5206 8.27306 17.6196 8.28223 17.7141 8.31027C17.8085 8.33832 17.8965 8.38469 17.973 8.44675C18.0495 8.50882 18.1131 8.58534 18.16 8.67197C18.696 9.66197 19 10.797 19 12.001C19.0005 13.1628 18.7119 14.3065 18.16 15.329C18.1131 15.4156 18.0496 15.4922 17.9731 15.5544C17.8967 15.6165 17.8087 15.663 17.7143 15.6911C17.6198 15.7192 17.5208 15.7285 17.4227 15.7183C17.3247 15.7082 17.2297 15.6788 17.143 15.632C17.0563 15.5851 16.9797 15.5216 16.9176 15.4451C16.8555 15.3686 16.809 15.2807 16.7809 15.1862C16.7527 15.0918 16.7435 14.9927 16.7536 14.8947C16.7638 14.7967 16.7931 14.7016 16.84 14.615C17.2735 13.8119 17.5003 12.9136 17.5 12.001C17.5 11.053 17.26 10.163 16.84 9.38596C16.7455 9.21104 16.7244 9.00576 16.7812 8.81525C16.838 8.62474 16.9682 8.46458 17.143 8.36997Z" fill="black"/>
</svg>
